<mxfile host="65bd71144e">
    <diagram id="vKfUstJof5N_D0-sD87D" name="Page-1">
        <mxGraphModel dx="1358" dy="1195" grid="1" gridSize="10" guides="1" tooltips="1" connect="1" arrows="1" fold="1" page="1" pageScale="1" pageWidth="827" pageHeight="1169" math="0" shadow="0">
            <root>
                <mxCell id="0"/>
                <mxCell id="1" parent="0"/>
                <mxCell id="2" value="" style="rounded=0;whiteSpace=wrap;html=1;strokeColor=#3399FF;strokeWidth=3;fillColor=none;" parent="1" vertex="1">
                    <mxGeometry x="50" y="990" width="590" height="100" as="geometry"/>
                </mxCell>
                <mxCell id="3" value="&lt;font style=&quot;font-size: 16px&quot;&gt;&lt;font color=&quot;#33ff33&quot; style=&quot;font-weight: bold&quot;&gt;NAVBAR&lt;/font&gt;&lt;br&gt;&lt;font color=&quot;#ff9999&quot;&gt;sticky&lt;/font&gt;&lt;/font&gt;" style="text;html=1;strokeColor=none;fillColor=none;align=center;verticalAlign=middle;whiteSpace=wrap;rounded=0;" parent="1" vertex="1">
                    <mxGeometry x="710" y="207" width="90" height="60" as="geometry"/>
                </mxCell>
                <mxCell id="4" value="&lt;font style=&quot;font-size: 16px&quot;&gt;&lt;b&gt;&lt;font color=&quot;#33ff33&quot;&gt;FOOTER&lt;br&gt;&lt;/font&gt;&lt;/b&gt;&lt;br&gt;&lt;/font&gt;" style="text;html=1;strokeColor=none;fillColor=none;align=center;verticalAlign=middle;whiteSpace=wrap;rounded=0;" parent="1" vertex="1">
                    <mxGeometry x="680" y="990" width="130" height="60" as="geometry"/>
                </mxCell>
                <mxCell id="5" value="" style="rounded=0;whiteSpace=wrap;html=1;strokeColor=#3399FF;strokeWidth=3;fillColor=none;" parent="1" vertex="1">
                    <mxGeometry x="51" y="220" width="589" height="60" as="geometry"/>
                </mxCell>
                <mxCell id="6" value="" style="rounded=0;whiteSpace=wrap;html=1;strokeWidth=3;fillColor=none;strokeColor=#FF0000;" parent="1" vertex="1">
                    <mxGeometry x="50" y="280" width="590" height="700" as="geometry"/>
                </mxCell>
                <mxCell id="7" value="" style="strokeWidth=2;html=1;shape=mxgraph.flowchart.annotation_2;align=left;labelPosition=right;pointerEvents=1;fillColor=none;rotation=-180;" parent="1" vertex="1">
                    <mxGeometry x="649" y="211" width="50" height="70" as="geometry"/>
                </mxCell>
                <mxCell id="8" value="" style="strokeWidth=2;html=1;shape=mxgraph.flowchart.annotation_2;align=left;labelPosition=right;pointerEvents=1;fillColor=none;rotation=-180;" parent="1" vertex="1">
                    <mxGeometry x="660" y="300" width="50" height="660" as="geometry"/>
                </mxCell>
                <mxCell id="9" value="" style="strokeWidth=2;html=1;shape=mxgraph.flowchart.annotation_2;align=left;labelPosition=right;pointerEvents=1;fillColor=none;rotation=-180;" parent="1" vertex="1">
                    <mxGeometry x="650" y="990" width="50" height="100" as="geometry"/>
                </mxCell>
                <mxCell id="10" value="&lt;font style=&quot;font-size: 50px&quot;&gt;heading 1&lt;/font&gt;" style="rounded=0;whiteSpace=wrap;html=1;strokeWidth=3;fillColor=none;" parent="1" vertex="1">
                    <mxGeometry x="60" y="290" width="570" height="130" as="geometry"/>
                </mxCell>
                <mxCell id="11" value="" style="rounded=0;whiteSpace=wrap;html=1;strokeWidth=3;fillColor=none;" parent="1" vertex="1">
                    <mxGeometry x="60" y="460" width="570" height="500" as="geometry"/>
                </mxCell>
                <mxCell id="12" value="LINK&lt;span style=&quot;white-space: pre&quot;&gt;&#9;&lt;/span&gt;&lt;span style=&quot;white-space: pre&quot;&gt;&#9;&lt;/span&gt;LINK&lt;span style=&quot;white-space: pre&quot;&gt;&#9;&lt;/span&gt;&lt;span style=&quot;white-space: pre&quot;&gt;&#9;&lt;/span&gt;LINK&lt;span style=&quot;white-space: pre&quot;&gt;&#9;&lt;/span&gt;&lt;span style=&quot;white-space: pre&quot;&gt;&#9;&lt;/span&gt;LINK ..." style="text;html=1;strokeColor=none;fillColor=none;align=center;verticalAlign=middle;whiteSpace=wrap;rounded=0;" parent="1" vertex="1">
                    <mxGeometry x="280" y="240" width="310" height="20" as="geometry"/>
                </mxCell>
                <mxCell id="13" value="&lt;blockquote style=&quot;margin: 0px 0px 0px 40px ; border: none ; padding: 0px ; font-size: 26px&quot;&gt;&lt;h1&gt;&lt;span style=&quot;font-size: 26px ; font-weight: normal&quot;&gt;short paragraph&lt;/span&gt;&lt;br&gt;&lt;/h1&gt;&lt;/blockquote&gt;" style="text;html=1;fillColor=none;spacing=5;spacingTop=-20;whiteSpace=wrap;overflow=hidden;rounded=0;strokeColor=#f0f0f0;" parent="1" vertex="1">
                    <mxGeometry x="100" y="640" width="510" height="110" as="geometry"/>
                </mxCell>
                <mxCell id="14" value="&lt;font style=&quot;font-size: 14px&quot;&gt;photo&lt;/font&gt;" style="rounded=1;whiteSpace=wrap;html=1;strokeWidth=3;fillColor=none;" parent="1" vertex="1">
                    <mxGeometry x="110" y="650" width="50" height="30" as="geometry"/>
                </mxCell>
                <mxCell id="15" value="" style="ellipse;whiteSpace=wrap;html=1;aspect=fixed;strokeWidth=3;fillColor=#f5f5f5;fontColor=#333333;strokeColor=#66FF66;" parent="1" vertex="1">
                    <mxGeometry x="580" y="1002.5" width="35" height="35" as="geometry"/>
                </mxCell>
                <mxCell id="16" value="" style="ellipse;whiteSpace=wrap;html=1;aspect=fixed;strokeWidth=3;fillColor=#f5f5f5;fontColor=#333333;strokeColor=#66FF66;" parent="1" vertex="1">
                    <mxGeometry x="530" y="1002.5" width="35" height="35" as="geometry"/>
                </mxCell>
                <mxCell id="17" value="" style="ellipse;whiteSpace=wrap;html=1;aspect=fixed;strokeWidth=3;fillColor=#f5f5f5;fontColor=#333333;strokeColor=#66FF66;" parent="1" vertex="1">
                    <mxGeometry x="480" y="1002.5" width="35" height="35" as="geometry"/>
                </mxCell>
                <mxCell id="18" value="" style="ellipse;whiteSpace=wrap;html=1;aspect=fixed;strokeWidth=3;fillColor=#f5f5f5;fontColor=#333333;strokeColor=#00FF00;" parent="1" vertex="1">
                    <mxGeometry x="425" y="1002.5" width="35" height="35" as="geometry"/>
                </mxCell>
                <mxCell id="19" value="&lt;font style=&quot;font-size: 17px&quot;&gt;2021 &amp;amp;copy; M;ss;ng Sem;colon&lt;/font&gt;" style="text;html=1;strokeColor=none;fillColor=none;align=center;verticalAlign=middle;whiteSpace=wrap;rounded=0;" parent="1" vertex="1">
                    <mxGeometry x="260" y="1050" width="190" height="20" as="geometry"/>
                </mxCell>
                <mxCell id="20" value="" style="shape=flexArrow;endArrow=classic;html=1;strokeColor=#33FF33;fillColor=#66FF66;" parent="1" edge="1">
                    <mxGeometry width="50" height="50" relative="1" as="geometry">
                        <mxPoint x="440" y="1100" as="sourcePoint"/>
                        <mxPoint x="490" y="1050" as="targetPoint"/>
                    </mxGeometry>
                </mxCell>
                <mxCell id="21" value="&lt;font color=&quot;#33ff33&quot;&gt;social media icons : Pinterest, FB, Instagram, LinkedId&lt;/font&gt;" style="text;html=1;strokeColor=none;fillColor=none;align=center;verticalAlign=middle;whiteSpace=wrap;rounded=0;" parent="1" vertex="1">
                    <mxGeometry x="450" y="1110" width="220" height="20" as="geometry"/>
                </mxCell>
                <mxCell id="22" value="&lt;font style=&quot;font-size: 17px&quot;&gt;navigation links ???&lt;/font&gt;" style="text;html=1;strokeColor=none;fillColor=none;align=center;verticalAlign=middle;whiteSpace=wrap;rounded=0;" parent="1" vertex="1">
                    <mxGeometry x="70" y="1002.5" width="190" height="20" as="geometry"/>
                </mxCell>
                <mxCell id="23" value="&lt;font style=&quot;font-size: 18px&quot;&gt;LOGO&lt;/font&gt;" style="text;html=1;strokeColor=none;fillColor=none;align=center;verticalAlign=middle;whiteSpace=wrap;rounded=0;" parent="1" vertex="1">
                    <mxGeometry x="70" y="233" width="60" height="34" as="geometry"/>
                </mxCell>
                <mxCell id="24" value="&lt;font style=&quot;font-size: 100px&quot;&gt;Testimonials&lt;/font&gt;" style="text;html=1;strokeColor=#3700CC;fillColor=#6a00ff;align=center;verticalAlign=middle;whiteSpace=wrap;rounded=0;fontColor=#ffffff;" parent="1" vertex="1">
                    <mxGeometry x="60" y="60" width="590" height="110" as="geometry"/>
                </mxCell>
                <mxCell id="25" value="&lt;font style=&quot;font-size: 16px&quot; color=&quot;#80ff00&quot;&gt;&lt;b&gt;ROUTED &lt;br&gt;(MAIN) PAGE&lt;/b&gt;&lt;/font&gt;" style="text;html=1;strokeColor=none;fillColor=none;align=center;verticalAlign=middle;whiteSpace=wrap;rounded=0;" parent="1" vertex="1">
                    <mxGeometry x="640" y="550" width="230" height="60" as="geometry"/>
                </mxCell>
                <mxCell id="26" value="&lt;span style=&quot;font-size: 16px&quot;&gt;Fullname/ Company&lt;/span&gt;" style="text;html=1;strokeColor=none;fillColor=none;align=center;verticalAlign=middle;whiteSpace=wrap;rounded=0;" parent="1" vertex="1">
                    <mxGeometry x="160" y="650" width="170" height="30" as="geometry"/>
                </mxCell>
                <mxCell id="28" value="" style="endArrow=none;html=1;" parent="1" edge="1">
                    <mxGeometry width="50" height="50" relative="1" as="geometry">
                        <mxPoint x="120" y="690" as="sourcePoint"/>
                        <mxPoint x="580" y="690" as="targetPoint"/>
                        <Array as="points">
                            <mxPoint x="430" y="690"/>
                        </Array>
                    </mxGeometry>
                </mxCell>
                <mxCell id="39" value="&lt;blockquote style=&quot;margin: 0px 0px 0px 40px ; border: none ; padding: 0px ; font-size: 26px&quot;&gt;&lt;h1&gt;&lt;span style=&quot;font-size: 26px ; font-weight: normal&quot;&gt;short paragraph&lt;/span&gt;&lt;br&gt;&lt;/h1&gt;&lt;/blockquote&gt;" style="text;html=1;fillColor=none;spacing=5;spacingTop=-20;whiteSpace=wrap;overflow=hidden;rounded=0;strokeColor=#f0f0f0;" parent="1" vertex="1">
                    <mxGeometry x="70" y="500" width="510" height="110" as="geometry"/>
                </mxCell>
                <mxCell id="40" value="&lt;font style=&quot;font-size: 14px&quot;&gt;photo&lt;/font&gt;" style="rounded=1;whiteSpace=wrap;html=1;strokeWidth=3;fillColor=none;" parent="1" vertex="1">
                    <mxGeometry x="80" y="510" width="50" height="30" as="geometry"/>
                </mxCell>
                <mxCell id="41" value="&lt;span style=&quot;font-size: 16px&quot;&gt;Fullname/ Company&lt;/span&gt;" style="text;html=1;strokeColor=none;fillColor=none;align=center;verticalAlign=middle;whiteSpace=wrap;rounded=0;" parent="1" vertex="1">
                    <mxGeometry x="130" y="510" width="170" height="30" as="geometry"/>
                </mxCell>
                <mxCell id="42" value="" style="endArrow=none;html=1;" parent="1" edge="1">
                    <mxGeometry width="50" height="50" relative="1" as="geometry">
                        <mxPoint x="90" y="550" as="sourcePoint"/>
                        <mxPoint x="549.9999999999998" y="550" as="targetPoint"/>
                        <Array as="points">
                            <mxPoint x="400" y="550"/>
                        </Array>
                    </mxGeometry>
                </mxCell>
                <mxCell id="43" value="&lt;blockquote style=&quot;margin: 0px 0px 0px 40px ; border: none ; padding: 0px ; font-size: 26px&quot;&gt;&lt;h1&gt;&lt;span style=&quot;font-size: 26px ; font-weight: normal&quot;&gt;short paragraph&lt;/span&gt;&lt;br&gt;&lt;/h1&gt;&lt;/blockquote&gt;" style="text;html=1;fillColor=none;spacing=5;spacingTop=-20;whiteSpace=wrap;overflow=hidden;rounded=0;strokeColor=#f0f0f0;" parent="1" vertex="1">
                    <mxGeometry x="70" y="770" width="510" height="110" as="geometry"/>
                </mxCell>
                <mxCell id="44" value="&lt;font style=&quot;font-size: 14px&quot;&gt;photo&lt;/font&gt;" style="rounded=1;whiteSpace=wrap;html=1;strokeWidth=3;fillColor=none;" parent="1" vertex="1">
                    <mxGeometry x="80" y="780" width="50" height="30" as="geometry"/>
                </mxCell>
                <mxCell id="45" value="&lt;span style=&quot;font-size: 16px&quot;&gt;Fullname/ Company&lt;/span&gt;" style="text;html=1;strokeColor=none;fillColor=none;align=center;verticalAlign=middle;whiteSpace=wrap;rounded=0;" parent="1" vertex="1">
                    <mxGeometry x="130" y="780" width="170" height="30" as="geometry"/>
                </mxCell>
                <mxCell id="46" value="" style="endArrow=none;html=1;" parent="1" edge="1">
                    <mxGeometry width="50" height="50" relative="1" as="geometry">
                        <mxPoint x="90" y="820" as="sourcePoint"/>
                        <mxPoint x="549.9999999999998" y="820" as="targetPoint"/>
                        <Array as="points">
                            <mxPoint x="400" y="820"/>
                        </Array>
                    </mxGeometry>
                </mxCell>
                <mxCell id="47" value="&lt;font style=&quot;font-size: 16px&quot; color=&quot;#ff6666&quot;&gt;&lt;font style=&quot;font-size: 16px&quot;&gt;STARS&lt;/font&gt;??&lt;/font&gt;" style="text;html=1;strokeColor=none;fillColor=none;align=center;verticalAlign=middle;whiteSpace=wrap;rounded=0;" parent="1" vertex="1">
                    <mxGeometry x="310.5" y="515" width="70" height="20" as="geometry"/>
                </mxCell>
                <mxCell id="48" value="&lt;font style=&quot;font-size: 16px&quot; color=&quot;#ff6666&quot;&gt;&lt;font style=&quot;font-size: 16px&quot;&gt;STARS&lt;/font&gt;??&lt;/font&gt;" style="text;html=1;strokeColor=none;fillColor=none;align=center;verticalAlign=middle;whiteSpace=wrap;rounded=0;" parent="1" vertex="1">
                    <mxGeometry x="330" y="655" width="70" height="20" as="geometry"/>
                </mxCell>
                <mxCell id="49" value="&lt;font style=&quot;font-size: 16px&quot; color=&quot;#ff6666&quot;&gt;&lt;font style=&quot;font-size: 16px&quot;&gt;STARS&lt;/font&gt;??&lt;/font&gt;" style="text;html=1;strokeColor=none;fillColor=none;align=center;verticalAlign=middle;whiteSpace=wrap;rounded=0;" parent="1" vertex="1">
                    <mxGeometry x="310" y="785" width="70" height="20" as="geometry"/>
                </mxCell>
                <mxCell id="50" value="" style="rounded=0;whiteSpace=wrap;html=1;fillColor=none;strokeWidth=5;" vertex="1" parent="1">
                    <mxGeometry x="35" y="207" width="620" height="893" as="geometry"/>
                </mxCell>
            </root>
        </mxGraphModel>
    </diagram>
</mxfile>